<?xml version="1.0" encoding="UTF-8"?>
<svg id="Layer_2" data-name="Layer 2" xmlns="http://www.w3.org/2000/svg" xmlns:xlink="http://www.w3.org/1999/xlink" viewBox="0 0 126.09 68.22">
  <defs>
    <style>
      .cls-1, .cls-2, .cls-3, .cls-4, .cls-5, .cls-6, .cls-7, .cls-8, .cls-9, .cls-10, .cls-11 {
        stroke-width: 0px;
      }

      .cls-1, .cls-4 {
        fill: #f46d24;
      }

      .cls-1, .cls-6, .cls-7, .cls-8, .cls-10 {
        fill-rule: evenodd;
      }

      .cls-2, .cls-7 {
        fill: #e71195;
      }

      .cls-12 {
        clip-path: url(#clippath-2);
      }

      .cls-13 {
        letter-spacing: 0em;
      }

      .cls-3 {
        fill: none;
      }

      .cls-14 {
        clip-path: url(#clippath-1);
      }

      .cls-15 {
        clip-path: url(#clippath-4);
      }

      .cls-5, .cls-6 {
        fill: #4db1e6;
      }

      .cls-16 {
        font-family: WorkSans-Bold, 'Work Sans';
        font-size: 10px;
        font-weight: 700;
      }

      .cls-17 {
        clip-path: url(#clippath);
      }

      .cls-18 {
        clip-path: url(#clippath-3);
      }

      .cls-8, .cls-11 {
        fill: #6dc747;
      }

      .cls-9, .cls-10 {
        fill: #040606;
      }

      .cls-19 {
        letter-spacing: 0em;
      }

      .cls-20 {
        clip-path: url(#clippath-5);
      }

      .cls-21 {
        letter-spacing: -.02em;
      }
    </style>
    <clipPath id="clippath">
      <rect class="cls-3" width="125.51" height="52.34"/>
    </clipPath>
    <clipPath id="clippath-1">
      <rect class="cls-3" x="-70.65" y="-105.67" width="595.28" height="841.89"/>
    </clipPath>
    <clipPath id="clippath-2">
      <rect class="cls-3" x="-70.65" y="-105.67" width="595.28" height="841.89"/>
    </clipPath>
    <clipPath id="clippath-3">
      <rect class="cls-3" x="-7.84" y="-7.9" width="141.19" height="79"/>
    </clipPath>
    <clipPath id="clippath-4">
      <rect class="cls-3" x="-70.65" y="-105.67" width="595.28" height="841.89"/>
    </clipPath>
    <clipPath id="clippath-5">
      <rect class="cls-3" x="-70.65" y="-105.67" width="595.28" height="841.89"/>
    </clipPath>
  </defs>
  <g id="Layer_1-2" data-name="Layer 1">
    <polygon class="cls-9" points="4.45 51.54 4.45 52.24 0 52.24 0 46.08 4.31 46.08 4.31 46.78 .75 46.78 .75 48.77 3.52 48.77 3.52 49.47 .75 49.47 .75 51.54 4.45 51.54"/>
    <g class="cls-17">
      <g class="cls-14">
        <g class="cls-12">
          <g class="cls-18">
            <g class="cls-15">
              <g class="cls-20">
                <path class="cls-10" d="m8.56,47.57l-.15.73c-.15-.08-.35-.12-.59-.12-.2,0-.39.06-.58.17-.19.11-.34.29-.46.52-.12.23-.18.52-.18.85v2.52h-.75v-4.67h.61l.1.77c.26-.57.76-.86,1.49-.86.22,0,.39.03.51.09Z"/>
                <path class="cls-10" d="m14,51.65l-.05.59c-.17.06-.36.09-.56.09-.24,0-.43-.05-.57-.16-.14-.11-.23-.28-.27-.53-.14.22-.35.39-.63.51-.28.12-.57.18-.87.18-.46,0-.84-.11-1.14-.32-.3-.22-.45-.52-.45-.93,0-.36.16-.66.47-.92.31-.26.76-.44,1.35-.54l1.24-.21v-.26c0-.31-.1-.56-.29-.75-.19-.19-.46-.28-.8-.28-.31,0-.58.08-.81.22-.23.15-.4.37-.53.66l-.55-.4c.12-.35.36-.63.69-.83.34-.21.73-.31,1.19-.31.55,0,1,.14,1.33.4.34.27.5.66.5,1.18v2.3c0,.11.03.2.08.25.06.06.15.08.27.08s.25-.01.37-.05Zm-1.9-.25c.28-.19.42-.43.42-.73v-.65l-1.04.2c-.42.07-.73.18-.93.32-.2.14-.31.32-.31.54,0,.19.08.34.22.44.15.1.36.15.62.15.39,0,.73-.09,1.01-.28Z"/>
                <path class="cls-10" d="m15.75,52.07c-.36-.18-.62-.44-.79-.79l.61-.42c.1.27.29.48.55.62.26.14.57.21.92.21s.65-.06.84-.2c.19-.13.29-.3.29-.5,0-.18-.09-.32-.27-.43-.18-.11-.5-.2-.95-.28-.45-.08-.8-.18-1.06-.29-.26-.12-.45-.26-.57-.44-.12-.18-.18-.4-.18-.66s.07-.49.22-.7c.15-.21.36-.38.64-.51.28-.13.6-.19.97-.19.5,0,.9.09,1.2.28.3.18.52.47.65.85l-.63.37c-.1-.3-.25-.51-.45-.64-.2-.13-.45-.2-.76-.2s-.56.07-.77.21c-.21.14-.32.3-.32.48,0,.21.09.36.27.48.18.11.51.21.98.29.65.11,1.1.26,1.37.48.27.21.4.51.4.9,0,.27-.08.5-.24.71-.16.21-.39.37-.68.49-.3.12-.64.18-1.03.18-.45,0-.85-.09-1.21-.27Z"/>
                <path class="cls-10" d="m26.64,47.67c.27.13.49.33.66.59.17.27.25.6.25.99v2.99h-.75v-2.91c0-.4-.1-.71-.3-.9-.2-.2-.47-.29-.8-.29-.25,0-.48.06-.68.18-.21.12-.38.3-.5.53-.13.23-.19.51-.19.84v2.56h-.75v-2.91c0-.4-.1-.71-.3-.9-.2-.2-.47-.29-.8-.29-.22,0-.44.06-.65.17-.21.11-.39.29-.52.54-.14.24-.2.54-.2.91v2.49h-.75v-4.67h.65l.05.73c.16-.27.37-.48.64-.62.26-.14.55-.21.85-.21.34,0,.66.08.95.23.29.16.51.38.66.68.14-.3.36-.53.67-.68.31-.16.63-.23.95-.23s.6.07.87.19Z"/>
                <path class="cls-9" d="m33.32,47.57v4.67h-.65l-.05-.71c-.31.54-.87.8-1.67.8-.5,0-.91-.14-1.23-.42-.32-.28-.48-.71-.48-1.29v-3.05h.75v2.86c0,.45.09.78.28.97.19.19.46.28.82.28.43,0,.78-.13,1.07-.39.28-.26.42-.65.42-1.18v-2.54h.75Z"/>
                <path class="cls-10" d="m35.49,52.07c-.36-.18-.62-.44-.79-.79l.61-.42c.1.27.29.48.55.62.26.14.57.21.92.21s.65-.06.84-.2c.19-.13.29-.3.29-.5,0-.18-.09-.32-.27-.43-.18-.11-.5-.2-.95-.28-.45-.08-.8-.18-1.06-.29-.26-.12-.45-.26-.57-.44-.12-.18-.18-.4-.18-.66s.07-.49.22-.7c.15-.21.36-.38.64-.51.28-.13.6-.19.97-.19.5,0,.9.09,1.2.28.3.18.52.47.65.85l-.63.37c-.1-.3-.25-.51-.45-.64-.2-.13-.45-.2-.76-.2s-.56.07-.77.21c-.21.14-.32.3-.32.48,0,.21.09.36.27.48.18.11.51.21.98.29.65.11,1.1.26,1.37.48.27.21.4.51.4.9,0,.27-.08.5-.24.71-.16.21-.39.37-.68.49-.3.12-.64.18-1.03.18-.45,0-.85-.09-1.21-.27Z"/>
                <path class="cls-10" d="m49.49,47.29l-.64.52c-.19-.41-.41-.7-.67-.87-.26-.17-.61-.26-1.06-.26-.47,0-.84.1-1.11.29-.27.2-.4.45-.4.75,0,.2.05.36.16.49.11.13.28.24.53.34.25.1.59.18,1.02.26.81.14,1.39.34,1.73.62.34.27.51.65.51,1.14,0,.35-.1.66-.29.92-.2.26-.47.47-.83.62-.36.15-.78.22-1.25.22-.62,0-1.15-.12-1.59-.37-.44-.24-.77-.57-1-.97l.64-.52c.17.37.41.65.74.85.33.2.73.3,1.22.3s.87-.09,1.16-.27c.29-.18.43-.43.43-.75,0-.28-.12-.49-.37-.65-.25-.16-.69-.3-1.32-.41-.82-.14-1.4-.35-1.74-.62-.34-.27-.51-.64-.51-1.12,0-.33.09-.64.28-.92.19-.28.45-.5.8-.67.35-.17.75-.25,1.21-.25,1.1,0,1.89.44,2.38,1.31Z"/>
                <path class="cls-9" d="m54.04,51.92c-.31.28-.71.42-1.2.42-.38,0-.69-.1-.93-.31-.24-.21-.36-.52-.37-.94v-2.87h-.93v-.64h.93v-1.12l.75-.21v1.33h1.72v.64h-1.72v2.74c0,.22.06.39.19.51.13.12.3.17.51.17.3,0,.56-.11.79-.35l.26.63Z"/>
                <path class="cls-9" d="m59.3,47.57v4.67h-.65l-.05-.71c-.31.54-.87.8-1.67.8-.5,0-.91-.14-1.23-.42-.32-.28-.48-.71-.48-1.29v-3.05h.75v2.86c0,.45.09.78.28.97.19.19.46.28.82.28.43,0,.78-.13,1.07-.39.28-.26.42-.65.42-1.18v-2.54h.75Z"/>
                <path class="cls-9" d="m65.24,45.42v6.82h-.65l-.05-.81c-.14.27-.35.49-.63.66-.28.16-.6.25-.96.25-.65,0-1.17-.22-1.55-.65-.38-.43-.57-1.03-.57-1.78s.19-1.35.57-1.78c.38-.43.9-.65,1.55-.65.34,0,.65.08.92.23.27.15.48.35.63.6v-2.88h.75Zm-1.14,5.79c.26-.31.4-.73.4-1.25v-.11c0-.52-.13-.94-.4-1.25-.26-.31-.62-.47-1.07-.47s-.81.16-1.07.48c-.26.32-.39.75-.39,1.29s.13.97.39,1.29.62.48,1.07.48.8-.16,1.07-.47Z"/>
                <path class="cls-10" d="m70.99,50.19h-3.51c.04.47.2.84.47,1.1.27.26.62.39,1.05.39.34,0,.63-.06.85-.18.23-.12.38-.29.46-.52l.62.33c-.19.33-.43.58-.75.76-.31.17-.71.26-1.19.26-.7,0-1.25-.22-1.65-.65-.4-.43-.6-1.02-.6-1.78s.19-1.35.57-1.78c.38-.43.92-.65,1.63-.65.43,0,.81.1,1.13.29.32.19.56.46.72.79.16.33.24.7.24,1.11,0,.17-.01.35-.04.52Zm-3.04-1.69c-.25.24-.4.58-.46,1.03h2.82c-.05-.43-.19-.78-.43-1.02-.24-.25-.55-.37-.94-.37s-.74.12-.99.36Z"/>
                <path class="cls-10" d="m76.1,47.94c.34.3.51.74.51,1.32v2.99h-.75v-2.73c0-.49-.1-.84-.31-1.06-.21-.22-.49-.33-.83-.33-.25,0-.48.05-.7.16-.22.11-.4.29-.54.53-.14.25-.21.56-.21.93v2.48h-.75v-4.67h.65l.05.73c.15-.28.37-.49.64-.62s.58-.2.92-.2c.53,0,.96.15,1.3.46Z"/>
                <path class="cls-9" d="m81.18,51.92c-.31.28-.71.42-1.2.42-.38,0-.69-.1-.93-.31-.24-.21-.36-.52-.37-.94v-2.87h-.93v-.64h.93v-1.12l.75-.21v1.33h1.72v.64h-1.72v2.74c0,.22.06.39.19.51s.3.17.51.17c.3,0,.56-.11.79-.35l.26.63Z"/>
                <polygon class="cls-9" points="91.94 52.24 91.02 52.24 88.45 48.11 87.8 46.9 87.79 46.9 87.82 47.89 87.82 52.24 87.12 52.24 87.12 46.08 88.04 46.08 90.6 50.19 91.26 51.42 91.27 51.42 91.23 50.43 91.23 46.08 91.94 46.08 91.94 52.24"/>
                <path class="cls-10" d="m97.85,50.19h-3.51c.04.47.2.84.47,1.1.27.26.62.39,1.05.39.34,0,.63-.06.85-.18.23-.12.38-.29.46-.52l.62.33c-.19.33-.43.58-.75.76-.31.17-.71.26-1.19.26-.7,0-1.25-.22-1.65-.65-.4-.43-.6-1.02-.6-1.78s.19-1.35.57-1.78c.38-.43.92-.65,1.63-.65.43,0,.81.1,1.13.29.32.19.56.46.72.79.16.33.24.7.24,1.11,0,.17-.01.35-.04.52Zm-3.04-1.69c-.25.24-.4.58-.46,1.03h2.82c-.05-.43-.19-.78-.43-1.02-.24-.25-.55-.37-.94-.37s-.74.12-.99.36Z"/>
                <path class="cls-9" d="m102.23,51.92c-.31.28-.71.42-1.2.42-.38,0-.69-.1-.93-.31-.24-.21-.36-.52-.37-.94v-2.87h-.93v-.64h.93v-1.12l.75-.21v1.33h1.72v.64h-1.72v2.74c0,.22.06.39.19.51s.3.17.51.17c.3,0,.56-.11.79-.35l.26.63Z"/>
                <polygon class="cls-9" points="110.44 47.57 108.82 52.24 108.08 52.24 106.76 48.53 105.53 52.24 104.78 52.24 103.16 47.57 103.99 47.57 105.16 51.38 106.43 47.57 107.17 47.57 108.44 51.38 109.61 47.57 110.44 47.57"/>
                <path class="cls-10" d="m115.24,48.12c.4.43.6,1.02.6,1.78s-.2,1.35-.6,1.78c-.4.43-.95.65-1.65.65s-1.25-.22-1.65-.65c-.4-.43-.6-1.02-.6-1.78s.2-1.35.6-1.78c.4-.43.95-.65,1.65-.65s1.25.22,1.65.65Zm-2.76.48c-.27.32-.4.75-.4,1.31s.13.99.4,1.31c.27.32.64.48,1.11.48s.84-.16,1.11-.48c.27-.32.4-.75.4-1.31s-.13-.99-.4-1.31c-.27-.32-.64-.48-1.11-.48s-.84.16-1.11.48Z"/>
                <path class="cls-10" d="m120.07,47.57l-.15.73c-.15-.08-.35-.12-.59-.12-.2,0-.39.06-.58.17-.19.11-.34.29-.46.52-.12.23-.18.52-.18.85v2.52h-.75v-4.67h.61l.1.77c.26-.57.76-.86,1.49-.86.22,0,.39.03.51.09Z"/>
                <polygon class="cls-9" points="123.03 49.94 122.05 50.93 122.05 52.24 121.3 52.24 121.3 45.42 122.05 45.42 122.05 49.99 124.46 47.57 125.39 47.57 123.57 49.39 125.5 52.24 124.6 52.24 123.03 49.94"/>
                <path class="cls-10" d="m67.65,31.62v2.94c0,.55-.44.99-.98.99h-18.63c-.54,0-.98-.44-.98-.99V4.95c0-.55.44-.99.98-.99h17.65c.54,0,.98.43.98.98v2.96c0,.55-.44.99-.98.99h-13.73v8.87h10.79c.54,0,.98.44.98.99v2.96c0,.55-.44.99-.98.99h-10.79v7.94h14.71c.54,0,.98.44.98.99Z"/>
                <path class="cls-10" d="m105.89,35.55h-2.9c-.54,0-.98-.44-.98-.99l-.04-29.62c0-.55.44-.99.98-.99h4.32c.36,0,.69.2.86.52l12.47,23.18V4.94c0-.55.44-.99.98-.99h2.94c.54,0,.98.44.98.99v29.6c0,.55-.44.99-.98.99h-4.33c-.35,0-.68-.19-.85-.5l-12.47-22.19v21.73c0,.55-.44.99-.98.99Z"/>
                <path class="cls-11" d="m22.55.99v11.61l-1.31,3.2h-3.26l-1.31-3.2V.99c0-.55.44-.99.98-.99h3.92c.54,0,.98.44.98.99Z"/>
                <path class="cls-6" d="m8.54,4.63l8.13,7.97,1.32,3.2-2.3,2.32-3.18-1.33-7.91-8.19c-.37-.39-.37-1.01,0-1.39l2.55-2.57c.38-.38.99-.39,1.38,0Z"/>
                <path class="cls-2" d="m.98,16.79h11.53l3.18,1.32v3.28l-3.18,1.32H.98c-.54,0-.98-.44-.98-.99v-3.95c0-.55.44-.99.98-.99Z"/>
                <path class="cls-1" d="m4.38,30.9l8.13-8.19,3.17-1.33,2.3,2.32-1.32,3.2-8.16,7.99c-.37.37-.97.37-1.35.01l-2.76-2.59c-.41-.38-.42-1.03-.02-1.42Z"/>
                <path class="cls-5" d="m16.67,38.51v-11.61l1.31-3.2h3.26l1.31,3.2v11.61c0,.55-.44.99-.98.99h-3.92c-.54,0-.98-.44-.98-.99Z"/>
                <path class="cls-8" d="m30.68,34.87l-8.13-7.97-1.32-3.2,2.3-2.32,3.18,1.33,7.91,8.19c.37.39.37,1.01,0,1.39l-2.55,2.57c-.38.38-.99.39-1.38,0Z"/>
                <path class="cls-4" d="m38.24,22.71h-11.53l-3.18-1.32v-3.28l3.18-1.32h11.53c.54,0,.98.44.98.99v3.95c0,.55-.44.99-.98.99Z"/>
                <path class="cls-7" d="m34.62,8.6l-7.91,8.19-3.18,1.33-2.3-2.32,1.32-3.2,8.13-7.97c.38-.38,1-.37,1.38,0l2.55,2.57c.38.38.38,1,0,1.39Z"/>
                <path class="cls-10" d="m96.17,26.96c0,1.84-.5,3.47-1.49,4.87-.98,1.38-2.38,2.47-4.18,3.23-1.77.75-3.83,1.14-6.14,1.14-3.02,0-5.66-.63-7.81-1.88-1.26-.73-2.4-1.79-3.33-2.88-.37-.43-.3-1.1.16-1.44l2.28-1.72c.44-.33,1.06-.23,1.39.22.51.71,1.07,1.28,1.85,1.79,1.46.95,3.34,1.43,5.56,1.43s3.96-.41,5.23-1.24c1.22-.79,1.82-1.89,1.82-3.33,0-1.19-.51-2.13-1.56-2.84-1.12-.76-3.17-1.42-6.11-1.97-.52-.1-1.03-.2-1.5-.31-3.22-.71-5.52-1.65-7.01-2.86-1.74-1.42-2.63-3.43-2.63-5.96,0-1.73.47-3.35,1.41-4.82.93-1.46,2.28-2.64,4.01-3.5,1.72-.85,3.73-1.28,5.99-1.28,4.86,0,8.98,1.82,11.46,5.44.3.45.23,1.05-.2,1.38l-2.31,1.75c-.46.35-1.1.21-1.42-.27-.86-1.32-1.81-1.98-2.74-2.63-1.14-.8-2.74-1.19-4.75-1.19-2.12,0-3.81.45-5.01,1.36-1.17.89-1.73,1.98-1.73,3.35,0,.89.21,1.6.65,2.16.44.57,1.22,1.1,2.3,1.54,1.13.46,2.73.88,4.76,1.24.54.1,1.07.2,1.56.32,3.17.68,5.43,1.63,6.9,2.86,1.72,1.45,2.59,3.49,2.59,6.04Z"/>
              </g>
            </g>
          </g>
        </g>
      </g>
    </g>
    <text class="cls-16" transform="translate(53.94 62.74)"><tspan x="0" y="0">Mi</tspan><tspan class="cls-19" x="12.01" y="0">l</tspan><tspan x="15.3" y="0">ano S</tspan><tspan class="cls-13" x="42.63" y="0">t</tspan><tspan class="cls-21" x="47.06" y="0">a</tspan><tspan class="cls-13" x="52.67" y="0">t</tspan><tspan x="57.1" y="0">ale</tspan></text>
  </g>
</svg>